<svg xmlns="http://www.w3.org/2000/svg" width="1440" height="900" viewBox="0 0 1440 900">
  <defs>
  <filter id="shadow" x="-30%" y="-30%" width="160%" height="180%">
    <feDropShadow dx="0" dy="18" stdDeviation="24" flood-color="#22314d" flood-opacity="0.14"/>
  </filter>
  <filter id="orbShadow" x="-70%" y="-70%" width="240%" height="240%">
    <feDropShadow dx="0" dy="7" stdDeviation="10" flood-color="#52627f" flood-opacity="0.22"/>
  </filter>
  <radialGradient id="orb" cx="34%" cy="28%" r="80%">
    <stop offset="0" stop-color="#ffffff" stop-opacity="0.98"/>
    <stop offset="0.22" stop-color="#eaf5ff" stop-opacity="0.98"/>
    <stop offset="0.48" stop-color="#c8dcff" stop-opacity="0.94"/>
    <stop offset="0.68" stop-color="#d5c8ff" stop-opacity="0.92"/>
    <stop offset="0.84" stop-color="#c6f0e4" stop-opacity="0.88"/>
    <stop offset="1" stop-color="#ffffff" stop-opacity="0.70"/>
  </radialGradient>
  <linearGradient id="glass" x1="0" y1="0" x2="1" y2="1">
    <stop offset="0" stop-color="#ffffff" stop-opacity="0.94"/>
    <stop offset="0.52" stop-color="#f5f8ff" stop-opacity="0.90"/>
    <stop offset="1" stop-color="#eaf1ff" stop-opacity="0.82"/>
  </linearGradient>
  <linearGradient id="composer" x1="0" y1="0" x2="0" y2="1">
    <stop offset="0" stop-color="#ffffff" stop-opacity="0.98"/>
    <stop offset="1" stop-color="#fbfcfe" stop-opacity="0.98"/>
  </linearGradient>
</defs>
  <rect width="1440" height="900" fill="#F8F9FB"/>
  <text x="34" y="46" font-family="Noto Sans CJK SC,system-ui,-apple-system,BlinkMacSystemFont,'Segoe UI',sans-serif" font-size="13" fill="#7C8797">受控 AI 页面 · Prompt Reuse Visual Master</text>
  <rect x="340" y="750" width="760" height="94" rx="26" fill="url(#composer)" stroke="#d9e0e8"/>
  <text x="362" y="786" font-family="Noto Sans CJK SC,system-ui,-apple-system,BlinkMacSystemFont,'Segoe UI',sans-serif" font-size="16" fill="#1F2937">Message AI…</text>
  <circle cx="370" cy="819" r="16" fill="#f2f4f7"/>
  <path d="M 364 819 h12 M 370 813 v12" stroke="#7C8797" stroke-width="1.6" stroke-linecap="round"/>
  <circle cx="1066" cy="817" r="18" fill="#d9dde3"/>
  <path d="M 1060 819 l6 -6 6 6 M 1066 813 v12" fill="none" stroke="#fff" stroke-width="1.8" stroke-linecap="round" stroke-linejoin="round"/>
  <g filter="url(#shadow)"><rect x="936" y="256" width="336" height="350" rx="20" fill="url(#glass)" stroke="#ffffffd9" stroke-width="1.1"/></g><text x="956" y="290" font-family="Noto Sans CJK SC,system-ui,sans-serif" font-size="13.3" font-weight="430" fill="#1D2738">帮我把这件事拆成下一步可以执行的任务</text><line x1="954" y1="317" x2="1254" y2="317" stroke="#7F93AE18"/><rect x="950" y="321" width="308" height="74" rx="12" fill="#FFFFFFA8" stroke="#7aa8d955"/>
      <text x="964" y="342" font-family="Noto Sans CJK SC,system-ui,sans-serif" font-size="13.2" fill="#1D2738">检查一下有没有逻辑漏洞</text>
      <text x="1184" y="377" font-family="Noto Sans CJK SC,system-ui,sans-serif" font-size="11.5" fill="#4f7fcf">保存</text>
      <text x="1225" y="377" font-family="Noto Sans CJK SC,system-ui,sans-serif" font-size="11.5" fill="#64748B">取消</text><text x="956" y="392" font-family="Noto Sans CJK SC,system-ui,sans-serif" font-size="13.3" font-weight="430" fill="#1D2738">不要重新设计，继续修改现有方案</text><line x1="954" y1="419" x2="1254" y2="419" stroke="#7F93AE18"/><text x="956" y="443" font-family="Noto Sans CJK SC,system-ui,sans-serif" font-size="13.3" font-weight="430" fill="#1D2738">用更简单的话解释</text><line x1="954" y1="470" x2="1254" y2="470" stroke="#7F93AE18"/><text x="956" y="494" font-family="Noto Sans CJK SC,system-ui,sans-serif" font-size="13.3" font-weight="430" fill="#1D2738">比较这两个方案的主要差别</text><line x1="954" y1="521" x2="1254" y2="521" stroke="#7F93AE18"/><text x="956" y="545" font-family="Noto Sans CJK SC,system-ui,sans-serif" font-size="13.3" font-weight="430" fill="#1D2738">整理成待办清单</text><rect x="1265" y="274" width="2.5" height="314" rx="2" fill="#52647c0a"/>
  <rect x="1265" y="300" width="2.5" height="74" rx="2" fill="#73839a4d"/><g filter="url(#orbShadow)">
    <circle cx="1254" cy="246" r="20" fill="url(#orb)" stroke="#7f95b8" stroke-opacity="0.28" stroke-width="1"/>
    <circle cx="1254" cy="246" r="21.5" fill="none" stroke="#ffffff" stroke-opacity="0.72" stroke-width="1"/>
    <ellipse cx="1248" cy="239" rx="7" ry="5" fill="#ffffff" fill-opacity="0.78"/>
    <circle cx="1261" cy="251" r="6" fill="#8f95ff" fill-opacity="0.15"/>
  </g>
  <text x="34" y="876" font-family="Noto Sans CJK SC,system-ui,sans-serif" font-size="12" fill="#7e8897">V04 · Edit state · Light</text>
</svg>